<?xml version="1.0" encoding="UTF-8"?>
<svg width="700pt" height="700pt" version="1.1" viewBox="0 0 700 700" xmlns="http://www.w3.org/2000/svg" xmlns:xlink="http://www.w3.org/1999/xlink">
 <g>
  <path d="m180.95 50.398c-3.0938 0.29297-5.3633 3.0352-5.0742 6.125 0.28906 3.0938 3.0312 5.3672 6.125 5.0781h16.801v212.62c-0.023437 1.4961 0.55859 2.9414 1.6094 4.0078 1.0547 1.0703 2.4922 1.6719 3.9883 1.6719 1.5 0 2.9375-0.60156 3.9883-1.6719 1.0547-1.0664 1.6328-2.5117 1.6133-4.0078v-78.227h134.4v123.2h-134.4v-11.023c0.0625-1.6445-0.59766-3.2344-1.8125-4.3477-1.2109-1.1133-2.8555-1.6367-4.4883-1.4297-2.8828 0.36328-5.0117 2.8711-4.8984 5.7773v11.023h-56c-0.35156-0.03125-0.70312-0.03125-1.0508 0-3.0938 0.28906-5.3633 3.0312-5.0742 6.125 0.28906 3.0938 3.0312 5.3672 6.125 5.0742h16.801v168h-16.801c-0.35156-0.03125-0.70312-0.03125-1.0508 0-3.0938 0.29297-5.3633 3.0352-5.0742 6.125 0.28906 3.0938 3.0312 5.3672 6.125 5.0781h414.4c1.5 0.019532 2.9453-0.5625 4.0117-1.6133 1.0664-1.0508 1.668-2.4883 1.668-3.9883s-0.60156-2.9375-1.668-3.9883c-1.0664-1.0508-2.5117-1.6328-4.0117-1.6133h-22.398v-168h22.398c1.5 0.023437 2.9453-0.55859 4.0117-1.6094 1.0664-1.0547 1.668-2.4883 1.668-3.9883s-0.60156-2.9375-1.668-3.9883c-1.0664-1.0547-2.5117-1.6328-4.0117-1.6133h-56v-257.6h16.801c1.5 0.019532 2.9453-0.5625 4.0117-1.6133 1.0664-1.0508 1.668-2.4883 1.668-3.9883s-0.60156-2.9375-1.668-3.9883c-1.0664-1.0508-2.5117-1.6328-4.0117-1.6133h-336c-0.34766-0.03125-0.69922-0.03125-1.0508 0zm29.051 11.203h134.4v123.2h-134.4zm145.6 0h134.4v123.2h-134.4zm-84.176 22.223c-1.6719 0.09375-3.2109 0.92969-4.1992 2.2773l-22.402 28c-0.92969 1.1602-1.3594 2.6406-1.1953 4.1172 0.16406 1.4766 0.91016 2.8281 2.0703 3.7578 1.1602 0.92969 2.6406 1.3555 4.1211 1.1914 1.4766-0.16406 2.8281-0.90625 3.7539-2.0664l22.402-28c1.4844-1.7031 1.8008-4.125 0.80859-6.1523-0.99219-2.0273-3.1055-3.2578-5.3594-3.125zm33.25 22.402c-1.4531 0.19141-2.7734 0.94531-3.6758 2.0977l-33.602 39.199c-1.2617 1.0586-1.9922 2.6211-2 4.2656-0.007813 1.6484 0.71094 3.2148 1.9648 4.2852 1.25 1.0703 2.9102 1.5352 4.5352 1.2695s3.0547-1.2305 3.9023-2.6445l33.598-39.199c1.5156-1.7227 1.8281-4.1953 0.78516-6.2422-1.0391-2.043-3.2227-3.2461-5.5078-3.0312zm50.926 89.773h134.4v123.2h-134.4zm61.422 22.227c-1.668 0.09375-3.207 0.92578-4.1992 2.2734l-22.398 28c-0.92969 1.1602-1.3594 2.6406-1.1953 4.1211 0.16406 1.4766 0.90625 2.8281 2.0703 3.7539 1.1602 0.92969 2.6406 1.3594 4.1172 1.1953 1.4766-0.16406 2.8281-0.91016 3.7578-2.0703l22.398-28c1.4844-1.6992 1.8047-4.125 0.8125-6.1523-0.99609-2.0234-3.1094-3.2578-5.3633-3.1211zm33.25 22.398c-1.4492 0.19141-2.7695 0.94531-3.6719 2.1016l-33.602 39.199c-1.2617 1.0586-1.9922 2.6172-2 4.2656-0.007812 1.6484 0.71094 3.2148 1.9609 4.2812 1.2539 1.0703 2.9141 1.5352 4.5391 1.2695 1.625-0.26172 3.0508-1.2305 3.8984-2.6406l33.602-39.203c1.5156-1.7227 1.8281-4.1953 0.78516-6.2383-1.043-2.0469-3.2266-3.2461-5.5117-3.0352zm-279.47 89.773h61.598v168h-61.598zm72.801 0h61.598v168h-61.598zm72.797 0h61.602v168h-61.602zm72.801 0h61.602v168h-61.602zm72.801 0h61.602v168h-61.602z"/>
  <use x="70" y="644" xlink:href="#t"/>
  <use x="90.550781" y="644" xlink:href="#d"/>
  <use x="104.359375" y="644" xlink:href="#a"/>
  <use x="123.347656" y="644" xlink:href="#f"/>
  <use x="142.242188" y="644" xlink:href="#c"/>
  <use x="155.628906" y="644" xlink:href="#a"/>
  <use x="174.617188" y="644" xlink:href="#l"/>
  <use x="204.410156" y="644" xlink:href="#k"/>
  <use x="224.453125" y="644" xlink:href="#j"/>
  <use x="252.453125" y="644" xlink:href="#a"/>
  <use x="271.441406" y="644" xlink:href="#b"/>
  <use x="300.617188" y="644" xlink:href="#b"/>
  <use x="329.792969" y="644" xlink:href="#f"/>
  <use x="358.4375" y="644" xlink:href="#b"/>
  <use x="387.609375" y="644" xlink:href="#s"/>
  <use x="397.210938" y="644" xlink:href="#c"/>
  <use x="410.59375" y="644" xlink:href="#i"/>
  <use x="427.191406" y="644" xlink:href="#h"/>
  <use x="447.125" y="644" xlink:href="#a"/>
  <use x="466.117187" y="644" xlink:href="#g"/>
  <use x="475.710937" y="644" xlink:href="#g"/>
  <use x="70" y="672" xlink:href="#r"/>
  <use x="82.183594" y="672" xlink:href="#d"/>
  <use x="95.992188" y="672" xlink:href="#e"/>
  <use x="115.226562" y="672" xlink:href="#b"/>
  <use x="154.152344" y="672" xlink:href="#c"/>
  <use x="167.535156" y="672" xlink:href="#h"/>
  <use x="187.46875" y="672" xlink:href="#a"/>
  <use x="216.207031" y="672" xlink:href="#q"/>
  <use x="239.640625" y="672" xlink:href="#e"/>
  <use x="258.878906" y="672" xlink:href="#p"/>
  <use x="278.8125" y="672" xlink:href="#o"/>
  <use x="308.492188" y="672" xlink:href="#n"/>
  <use x="329.015625" y="672" xlink:href="#d"/>
  <use x="342.820312" y="672" xlink:href="#e"/>
  <use x="362.058594" y="672" xlink:href="#m"/>
  <use x="371.65625" y="672" xlink:href="#a"/>
  <use x="390.648438" y="672" xlink:href="#i"/>
  <use x="407.242188" y="672" xlink:href="#c"/>
 </g>
</svg>
