<?xml version="1.0" encoding="UTF-8"?>
<svg width="700pt" height="700pt" version="1.1" viewBox="0 0 700 700" xmlns="http://www.w3.org/2000/svg" xmlns:xlink="http://www.w3.org/1999/xlink">
 <g>
  <path d="m102.59 549.39h494.83c3.5117 0 6.3633-2.8516 6.3633-6.3633v-81.207c0-3.5117-2.8516-6.3633-6.3633-6.3633h-31.586v-438.49c0-3.5117-2.8516-6.3633-6.3633-6.3633h-418.93c-3.5117 0-6.3633 2.8516-6.3633 6.3633v438.49h-31.586c-3.5117 0-6.3633 2.8516-6.3633 6.3633v81.207c0 3.5117 2.8477 6.3633 6.3633 6.3633zm44.312-526.06h406.2v432.13h-406.2zm444.15 444.86v27.875h-126.45v12.727h126.45v27.879h-482.1v-27.879h307.84v-12.727h-307.84v-27.875c-3.5312 0.027344 42.105 0.62109 482.1 0z"/>
  <path d="m523.04 46.395h-346.07c-3.5117 0-6.3633 2.8516-6.3633 6.3633l0.003907 372.64c0 3.5117 2.8516 6.3633 6.3633 6.3633h346.07c3.5117 0 6.3633-2.8516 6.3633-6.3633v-372.64c-0.003906-3.5156-2.8516-6.3633-6.3672-6.3633zm-6.3633 186.32h-160.31v-173.59h160.31zm-333.34-173.59h160.31v359.91h-160.31zm333.34 359.91h-160.31v-173.59h160.31z"/>
  <path d="m277.96 85.539 9 9-69.062 69.062-9-9z"/>
  <path d="m219.22 208.38-9-9 98.852-98.852 9 9z"/>
  <use x="70" y="687.273438" xlink:href="#s"/>
  <use x="101.132813" y="687.273438" xlink:href="#c"/>
  <use x="122.058594" y="687.273438" xlink:href="#b"/>
  <use x="150.828125" y="687.273438" xlink:href="#j"/>
  <use x="179.457031" y="687.273438" xlink:href="#a"/>
  <use x="199.738281" y="687.273438" xlink:href="#b"/>
  <use x="228.511719" y="687.273438" xlink:href="#i"/>
  <use x="273.648438" y="687.273438" xlink:href="#h"/>
  <use x="304.015625" y="687.273438" xlink:href="#g"/>
  <use x="346.441406" y="687.273438" xlink:href="#f"/>
  <use x="379.273438" y="687.273438" xlink:href="#b"/>
  <use x="408.046875" y="687.273438" xlink:href="#r"/>
  <use x="433.195313" y="687.273438" xlink:href="#a"/>
  <use x="453.476562" y="687.273438" xlink:href="#e"/>
  <use x="482.621094" y="687.273438" xlink:href="#c"/>
  <use x="503.542969" y="687.273438" xlink:href="#q"/>
  <use x="543.566406" y="687.273438" xlink:href="#d"/>
  <use x="574.65625" y="687.273438" xlink:href="#e"/>
  <use x="603.804688" y="687.273438" xlink:href="#p"/>
  <use x="618.347656" y="687.273438" xlink:href="#o"/>
  <use x="648.546875" y="687.273438" xlink:href="#a"/>
  <use x="70" y="729.695312" xlink:href="#n"/>
  <use x="197.5" y="729.695312" xlink:href="#a"/>
  <use x="217.78125" y="729.695312" xlink:href="#m"/>
  <use x="291.527344" y="729.695312" xlink:href="#l"/>
  <use x="431.351563" y="729.695312" xlink:href="#d"/>
  <use x="512.511719" y="729.695312" xlink:href="#k"/>
  <use x="580.976562" y="729.695312" xlink:href="#a"/>
 </g>
</svg>
